<svg width="25" height="24" viewBox="0 0 25 24" fill="none" xmlns="http://www.w3.org/2000/svg"><path d="M12.4167 20.3334C14.6268 20.3334 16.7464 19.4554 18.3092 17.8926C19.872 16.3298 20.75 14.2102 20.75 12C20.75 9.7899 19.872 7.67029 18.3092 6.10748C16.7464 4.54468 14.6268 3.66671 12.4167 3.66671C10.2065 3.66671 8.08691 4.54468 6.52411 6.10748C4.96131 7.67029 4.08333 9.7899 4.08333 12C4.08333 14.2102 4.96131 16.3298 6.52411 17.8926C8.08691 19.4554 10.2065 20.3334 12.4167 20.3334ZM12.4167 1.58337C13.7846 1.58337 15.1391 1.85281 16.403 2.3763C17.6668 2.89978 18.8151 3.66707 19.7824 4.63435C20.7496 5.60162 21.5169 6.74995 22.0404 8.01375C22.5639 9.27756 22.8333 10.6321 22.8333 12C22.8333 14.7627 21.7359 17.4122 19.7824 19.3657C17.8289 21.3192 15.1793 22.4167 12.4167 22.4167C6.65625 22.4167 2 17.7292 2 12C2 9.23737 3.09747 6.58785 5.05097 4.63435C7.00447 2.68084 9.65399 1.58337 12.4167 1.58337ZM12.9375 6.79171V12.2605L17.625 15.0417L16.8437 16.323L11.375 13.0417V6.79171H12.9375Z" fill="#127958"/></svg>