<svg width="96" height="97" viewBox="0 0 96 97" fill="none" xmlns="http://www.w3.org/2000/svg"><g filter="url(#filter0_d_2_893)"><path fill-rule="evenodd" clip-rule="evenodd" d="M35.2727 34.6412C35.2727 27.1929 36.0847 27.7127 40.4551 23.6586C42.3672 22.1189 45.3425 19.1481 47.9118 19.1481C50.4799 19.1481 53.5147 22.1043 55.444 23.6586C59.8144 27.7127 60.625 27.1929 60.625 34.6412C60.625 45.6026 58.0345 45.6026 47.9489 45.6026C37.8632 45.6026 35.2727 45.6026 35.2727 34.6412Z" fill="#CAD8EA"/></g><path fill-rule="evenodd" clip-rule="evenodd" d="M42.9887 37.8451C42.9887 37.3885 43.3588 37.0184 43.8154 37.0184H51.5071C51.9636 37.0184 52.3338 37.3885 52.3338 37.8451C52.3338 38.3017 51.9636 38.6718 51.5071 38.6718H43.8154C43.3588 38.6718 42.9887 38.3017 42.9887 37.8451Z" fill="white"/><defs><filter id="filter0_d_2_893" x="0" y="0" width="95.8977" height="97" filterUnits="userSpaceOnUse" color-interpolation-filters="sRGB"><feFlood flood-opacity="0" result="BackgroundImageFix"/><feColorMatrix in="SourceAlpha" type="matrix" values="0 0 0 0 0 0 0 0 0 0 0 0 0 0 0 0 0 0 127 0" result="hardAlpha"/><feMorphology radius="16" operator="erode" in="SourceAlpha" result="effect1_dropShadow_2_893"/><feOffset dy="16"/><feGaussianBlur stdDeviation="25.5"/><feComposite in2="hardAlpha" operator="out"/><feColorMatrix type="matrix" values="0 0 0 0 0.156863 0 0 0 0 0.631373 0 0 0 0 0.462745 0 0 0 0.32 0"/><feBlend mode="normal" in2="BackgroundImageFix" result="effect1_dropShadow_2_893"/><feBlend mode="normal" in="SourceGraphic" in2="effect1_dropShadow_2_893" result="shape"/></filter></defs></svg>